<?xml version="1.0" encoding="UTF-8" standalone="no"?>
<!DOCTYPE svg PUBLIC "-//W3C//DTD SVG 1.1//EN"
 "http://www.w3.org/Graphics/SVG/1.1/DTD/svg11.dtd">
<!-- Generated by graphviz version 2.40.1 (20161225.0304)
 -->
<!-- Title: G Pages: 1 -->
<svg width="300pt" height="238pt"
 viewBox="0.00 0.00 300.13 238.00" xmlns="http://www.w3.org/2000/svg" xmlns:xlink="http://www.w3.org/1999/xlink">
<g id="graph0" class="graph" transform="scale(1 1) rotate(0) translate(4 234)">
<title>G</title>
<polygon fill="#ffffff" stroke="transparent" points="-4,4 -4,-234 296.1322,-234 296.1322,4 -4,4"/>
<g id="clust1" class="cluster">
<title>cluster_Global</title>
<path fill="none" stroke="#c0c0c0" d="M149.1161,-8C149.1161,-8 272.1322,-8 272.1322,-8 278.1322,-8 284.1322,-14 284.1322,-20 284.1322,-20 284.1322,-210 284.1322,-210 284.1322,-216 278.1322,-222 272.1322,-222 272.1322,-222 149.1161,-222 149.1161,-222 143.1161,-222 137.1161,-216 137.1161,-210 137.1161,-210 137.1161,-20 137.1161,-20 137.1161,-14 143.1161,-8 149.1161,-8"/>
<text text-anchor="middle" x="210.6242" y="-209.2" font-family="Times,serif" font-size="11.00" fill="#c0c0c0">Global</text>
</g>
<g id="clust2" class="cluster">
<title>cluster_\Gospel</title>
<path fill="none" stroke="#c0c0c0" d="M157.1161,-16C157.1161,-16 264.1322,-16 264.1322,-16 270.1322,-16 276.1322,-22 276.1322,-28 276.1322,-28 276.1322,-183 276.1322,-183 276.1322,-189 270.1322,-195 264.1322,-195 264.1322,-195 157.1161,-195 157.1161,-195 151.1161,-195 145.1161,-189 145.1161,-183 145.1161,-183 145.1161,-28 145.1161,-28 145.1161,-22 151.1161,-16 157.1161,-16"/>
<text text-anchor="middle" x="210.6242" y="-182.2" font-family="Times,serif" font-size="11.00" fill="#c0c0c0">Gospel</text>
</g>
<!-- \\Gospel\\GospelException -->
<g id="node1" class="node">
<title>\\Gospel\\GospelException</title>
<polygon fill="none" stroke="#000000" points="268.1403,-168 153.108,-168 153.108,-132 268.1403,-132 268.1403,-168"/>
<text text-anchor="middle" x="210.6242" y="-146.7" font-family="Courier,monospace" font-size="11.00" fill="#000000">GospelException</text>
</g>
<!-- \\Exception -->
<g id="node4" class="node">
<title>\\Exception</title>
<ellipse fill="none" stroke="#000000" cx="40.5581" cy="-150" rx="40.6162" ry="18"/>
<text text-anchor="middle" x="40.5581" y="-145.8" font-family="Times,serif" font-size="14.00" fill="#c0c0c0">xception</text>
</g>
<!-- \\Gospel\\GospelException&#45;&gt;\\Exception -->
<g id="edge1" class="edge">
<title>\\Gospel\\GospelException&#45;&gt;\\Exception</title>
<path fill="none" stroke="#000000" d="M153.0475,-150C133.0354,-150 110.7505,-150 91.329,-150"/>
<polygon fill="none" stroke="#000000" points="91.1648,-146.5001 81.1648,-150 91.1648,-153.5001 91.1648,-146.5001"/>
</g>
<!-- \\Gospel\\Config -->
<g id="node2" class="node">
<title>\\Gospel\\Config</title>
<polygon fill="none" stroke="#000000" points="238.232,-114 183.0163,-114 183.0163,-78 238.232,-78 238.232,-114"/>
<text text-anchor="middle" x="210.6242" y="-92.7" font-family="Courier,monospace" font-size="11.00" fill="#000000">Config</text>
</g>
<!-- \\Gospel\\Client -->
<g id="node3" class="node">
<title>\\Gospel\\Client</title>
<polygon fill="none" stroke="#000000" points="238.232,-60 183.0163,-60 183.0163,-24 238.232,-24 238.232,-60"/>
<text text-anchor="middle" x="210.6242" y="-38.7" font-family="Courier,monospace" font-size="11.00" fill="#000000">Client</text>
</g>
</g>
</svg>
