<?xml version="1.0" encoding="UTF-8" standalone="no"?>
<!DOCTYPE svg PUBLIC "-//W3C//DTD SVG 1.1//EN"
 "http://www.w3.org/Graphics/SVG/1.1/DTD/svg11.dtd">
<!-- Generated by graphviz version 2.40.1 (20161225.0304)
 -->
<!-- Title: G Pages: 1 -->
<svg width="300pt" height="319pt"
 viewBox="0.00 0.00 300.13 319.00" xmlns="http://www.w3.org/2000/svg" xmlns:xlink="http://www.w3.org/1999/xlink">
<g id="graph0" class="graph" transform="scale(1 1) rotate(0) translate(4 315)">
<title>G</title>
<polygon fill="#ffffff" stroke="transparent" points="-4,4 -4,-315 296.1322,-315 296.1322,4 -4,4"/>
<g id="clust1" class="cluster">
<title>cluster_Global</title>
<path fill="none" stroke="#c0c0c0" d="M149.1161,-8C149.1161,-8 272.1322,-8 272.1322,-8 278.1322,-8 284.1322,-14 284.1322,-20 284.1322,-20 284.1322,-291 284.1322,-291 284.1322,-297 278.1322,-303 272.1322,-303 272.1322,-303 149.1161,-303 149.1161,-303 143.1161,-303 137.1161,-297 137.1161,-291 137.1161,-291 137.1161,-20 137.1161,-20 137.1161,-14 143.1161,-8 149.1161,-8"/>
<text text-anchor="middle" x="210.6242" y="-290.2" font-family="Times,serif" font-size="11.00" fill="#c0c0c0">Global</text>
</g>
<g id="clust2" class="cluster">
<title>cluster_\Gospel</title>
<path fill="none" stroke="#c0c0c0" d="M157.1161,-16C157.1161,-16 264.1322,-16 264.1322,-16 270.1322,-16 276.1322,-22 276.1322,-28 276.1322,-28 276.1322,-264 276.1322,-264 276.1322,-270 270.1322,-276 264.1322,-276 264.1322,-276 157.1161,-276 157.1161,-276 151.1161,-276 145.1161,-270 145.1161,-264 145.1161,-264 145.1161,-28 145.1161,-28 145.1161,-22 151.1161,-16 157.1161,-16"/>
<text text-anchor="middle" x="210.6242" y="-263.2" font-family="Times,serif" font-size="11.00" fill="#c0c0c0">Gospel</text>
</g>
<g id="clust3" class="cluster">
<title>cluster_\Gospel\Parser</title>
<path fill="none" stroke="#c0c0c0" d="M183.5204,-178C183.5204,-178 237.7279,-178 237.7279,-178 243.7279,-178 249.7279,-184 249.7279,-190 249.7279,-190 249.7279,-237 249.7279,-237 249.7279,-243 243.7279,-249 237.7279,-249 237.7279,-249 183.5204,-249 183.5204,-249 177.5204,-249 171.5204,-243 171.5204,-237 171.5204,-237 171.5204,-190 171.5204,-190 171.5204,-184 177.5204,-178 183.5204,-178"/>
<text text-anchor="middle" x="210.6242" y="-236.2" font-family="Times,serif" font-size="11.00" fill="#c0c0c0">Parser</text>
</g>
<!-- \\Gospel\\Parser\\Catalog -->
<g id="node1" class="node">
<title>\\Gospel\\Parser\\Catalog</title>
<polygon fill="none" stroke="#000000" points="241.832,-222 179.4163,-222 179.4163,-186 241.832,-186 241.832,-222"/>
<text text-anchor="middle" x="210.6242" y="-200.7" font-family="Courier,monospace" font-size="11.00" fill="#000000">Catalog</text>
</g>
<!-- \\Gospel\\GospelException -->
<g id="node2" class="node">
<title>\\Gospel\\GospelException</title>
<polygon fill="none" stroke="#000000" points="268.1403,-168 153.108,-168 153.108,-132 268.1403,-132 268.1403,-168"/>
<text text-anchor="middle" x="210.6242" y="-146.7" font-family="Courier,monospace" font-size="11.00" fill="#000000">GospelException</text>
</g>
<!-- \\Exception -->
<g id="node5" class="node">
<title>\\Exception</title>
<ellipse fill="none" stroke="#000000" cx="40.5581" cy="-150" rx="40.6162" ry="18"/>
<text text-anchor="middle" x="40.5581" y="-145.8" font-family="Times,serif" font-size="14.00" fill="#c0c0c0">xception</text>
</g>
<!-- \\Gospel\\GospelException&#45;&gt;\\Exception -->
<g id="edge1" class="edge">
<title>\\Gospel\\GospelException&#45;&gt;\\Exception</title>
<path fill="none" stroke="#000000" d="M153.0475,-150C133.0354,-150 110.7505,-150 91.329,-150"/>
<polygon fill="none" stroke="#000000" points="91.1648,-146.5001 81.1648,-150 91.1648,-153.5001 91.1648,-146.5001"/>
</g>
<!-- \\Gospel\\Config -->
<g id="node3" class="node">
<title>\\Gospel\\Config</title>
<polygon fill="none" stroke="#000000" points="238.232,-114 183.0163,-114 183.0163,-78 238.232,-78 238.232,-114"/>
<text text-anchor="middle" x="210.6242" y="-92.7" font-family="Courier,monospace" font-size="11.00" fill="#000000">Config</text>
</g>
<!-- \\Gospel\\Client -->
<g id="node4" class="node">
<title>\\Gospel\\Client</title>
<polygon fill="none" stroke="#000000" points="238.232,-60 183.0163,-60 183.0163,-24 238.232,-24 238.232,-60"/>
<text text-anchor="middle" x="210.6242" y="-38.7" font-family="Courier,monospace" font-size="11.00" fill="#000000">Client</text>
</g>
</g>
</svg>
